{
	"asset":{
		"generator":"Khronos glTF Blender I/O v3.5.30",
		"version":"2.0"
	},
	"scene":0,
	"scenes":[
		{
			"name":"Scene",
			"nodes":[
				0
			]
		}
	],
	"nodes":[
		{
			"mesh":0,
			"name":"Cube",
			"translation":[
				1.2880077362060547,
				3.0608127117156982,
				-0.2945600748062134
			]
		}
	],
	"materials":[
		{
			"doubleSided":true,
			"name":"black plastic",
			"pbrMetallicRoughness":{}
		},
		{
			"doubleSided":true,
			"name":"white",
			"pbrMetallicRoughness":{}
		},
		{
			"doubleSided":true,
			"name":"blue",
			"pbrMetallicRoughness":{}
		},
		{
			"doubleSided":true,
			"name":"orange",
			"pbrMetallicRoughness":{}
		},
		{
			"doubleSided":true,
			"name":"red",
			"pbrMetallicRoughness":{}
		},
		{
			"doubleSided":true,
			"name":"green",
			"pbrMetallicRoughness":{}
		},
		{
			"doubleSided":true,
			"name":"yellow",
			"pbrMetallicRoughness":{}
		}
	],
	"meshes":[
		{
			"name":"Cube",
			"primitives":[
				{
					"attributes":{
						"POSITION":0,
						"NORMAL":1
					},
					"indices":2,
					"material":0
				},
				{
					"attributes":{
						"POSITION":3,
						"NORMAL":4
					},
					"indices":5,
					"material":1
				},
				{
					"attributes":{
						"POSITION":6,
						"NORMAL":7
					},
					"indices":8,
					"material":2
				},
				{
					"attributes":{
						"POSITION":9,
						"NORMAL":10
					},
					"indices":5,
					"material":3
				},
				{
					"attributes":{
						"POSITION":11,
						"NORMAL":12
					},
					"indices":5,
					"material":4
				},
				{
					"attributes":{
						"POSITION":13,
						"NORMAL":14
					},
					"indices":15,
					"material":5
				},
				{
					"attributes":{
						"POSITION":16,
						"NORMAL":17
					},
					"indices":18,
					"material":6
				}
			]
		}
	],
	"accessors":[
		{
			"bufferView":0,
			"componentType":5126,
			"count":7992,
			"max":[
				3.0200090408325195,
				3.020014524459839,
				3.0199875831604004
			],
			"min":[
				-3.019993305206299,
				-3.0199854373931885,
				-3.020015239715576
			],
			"type":"VEC3"
		},
		{
			"bufferView":1,
			"componentType":5126,
			"count":7992,
			"type":"VEC3"
		},
		{
			"bufferView":2,
			"componentType":5123,
			"count":47304,
			"type":"SCALAR"
		},
		{
			"bufferView":3,
			"componentType":5126,
			"count":36,
			"max":[
				2.8496479988098145,
				2.849653959274292,
				3.0199875831604004
			],
			"min":[
				-2.849632740020752,
				-2.8496251106262207,
				3.019986867904663
			],
			"type":"VEC3"
		},
		{
			"bufferView":4,
			"componentType":5126,
			"count":36,
			"type":"VEC3"
		},
		{
			"bufferView":5,
			"componentType":5123,
			"count":54,
			"type":"SCALAR"
		},
		{
			"bufferView":6,
			"componentType":5126,
			"count":36,
			"max":[
				2.8496484756469727,
				3.020014524459839,
				2.8496270179748535
			],
			"min":[
				-2.849632740020752,
				3.020014524459839,
				-2.849654197692871
			],
			"type":"VEC3"
		},
		{
			"bufferView":7,
			"componentType":5126,
			"count":36,
			"type":"VEC3"
		},
		{
			"bufferView":8,
			"componentType":5123,
			"count":54,
			"type":"SCALAR"
		},
		{
			"bufferView":9,
			"componentType":5126,
			"count":36,
			"max":[
				-3.0199925899505615,
				2.849653959274292,
				2.8496265411376953
			],
			"min":[
				-3.019993305206299,
				-2.8496251106262207,
				-2.8496546745300293
			],
			"type":"VEC3"
		},
		{
			"bufferView":10,
			"componentType":5126,
			"count":36,
			"type":"VEC3"
		},
		{
			"bufferView":11,
			"componentType":5126,
			"count":36,
			"max":[
				3.0200090408325195,
				2.849653959274292,
				2.8496272563934326
			],
			"min":[
				3.020008087158203,
				-2.8496251106262207,
				-2.849654197692871
			],
			"type":"VEC3"
		},
		{
			"bufferView":12,
			"componentType":5126,
			"count":36,
			"type":"VEC3"
		},
		{
			"bufferView":13,
			"componentType":5126,
			"count":36,
			"max":[
				2.8496479988098145,
				-3.0199854373931885,
				2.8496265411376953
			],
			"min":[
				-2.849632501602173,
				-3.0199854373931885,
				-2.8496546745300293
			],
			"type":"VEC3"
		},
		{
			"bufferView":14,
			"componentType":5126,
			"count":36,
			"type":"VEC3"
		},
		{
			"bufferView":15,
			"componentType":5123,
			"count":54,
			"type":"SCALAR"
		},
		{
			"bufferView":16,
			"componentType":5126,
			"count":36,
			"max":[
				2.8496484756469727,
				2.849653959274292,
				-3.0200142860412598
			],
			"min":[
				-2.8496322631835938,
				-2.8496251106262207,
				-3.020015239715576
			],
			"type":"VEC3"
		},
		{
			"bufferView":17,
			"componentType":5126,
			"count":36,
			"type":"VEC3"
		},
		{
			"bufferView":18,
			"componentType":5123,
			"count":54,
			"type":"SCALAR"
		}
	],
	"bufferViews":[
		{
			"buffer":0,
			"byteLength":95904,
			"byteOffset":0,
			"target":34962
		},
		{
			"buffer":0,
			"byteLength":95904,
			"byteOffset":95904,
			"target":34962
		},
		{
			"buffer":0,
			"byteLength":94608,
			"byteOffset":191808,
			"target":34963
		},
		{
			"buffer":0,
			"byteLength":432,
			"byteOffset":286416,
			"target":34962
		},
		{
			"buffer":0,
			"byteLength":432,
			"byteOffset":286848,
			"target":34962
		},
		{
			"buffer":0,
			"byteLength":108,
			"byteOffset":287280,
			"target":34963
		},
		{
			"buffer":0,
			"byteLength":432,
			"byteOffset":287388,
			"target":34962
		},
		{
			"buffer":0,
			"byteLength":432,
			"byteOffset":287820,
			"target":34962
		},
		{
			"buffer":0,
			"byteLength":108,
			"byteOffset":288252,
			"target":34963
		},
		{
			"buffer":0,
			"byteLength":432,
			"byteOffset":288360,
			"target":34962
		},
		{
			"buffer":0,
			"byteLength":432,
			"byteOffset":288792,
			"target":34962
		},
		{
			"buffer":0,
			"byteLength":432,
			"byteOffset":289224,
			"target":34962
		},
		{
			"buffer":0,
			"byteLength":432,
			"byteOffset":289656,
			"target":34962
		},
		{
			"buffer":0,
			"byteLength":432,
			"byteOffset":290088,
			"target":34962
		},
		{
			"buffer":0,
			"byteLength":432,
			"byteOffset":290520,
			"target":34962
		},
		{
			"buffer":0,
			"byteLength":108,
			"byteOffset":290952,
			"target":34963
		},
		{
			"buffer":0,
			"byteLength":432,
			"byteOffset":291060,
			"target":34962
		},
		{
			"buffer":0,
			"byteLength":432,
			"byteOffset":291492,
			"target":34962
		},
		{
			"buffer":0,
			"byteLength":108,
			"byteOffset":291924,
			"target":34963
		}
	],
	"buffers":[
		{
			"byteLength":292032,
			"uri":"data:application/octet-stream;base64,"
		}
	]
}
