{
	"asset":{
		"generator":"Khronos glTF Blender I/O v3.5.30",
		"version":"2.0"
	},
	"extensionsUsed":[
		"KHR_materials_emissive_strength"
	],
	"scene":0,
	"scenes":[
		{
			"name":"Scene",
			"nodes":[
				0,
				1,
				2,
				3,
				4
			]
		}
	],
	"nodes":[
		{
			"mesh":0,
			"name":"Plane.003",
			"rotation":[
				0.3148564398288727,
				-0.8518388271331787,
				-0.20802190899848938,
				0.36326727271080017
			],
			"scale":[
				10.398173332214355,
				10.398172378540039,
				10.398173332214355
			],
			"translation":[
				-32.06700134277344,
				44.161354064941406,
				43.28105163574219
			]
		},
		{
			"mesh":1,
			"name":"Plane.002",
			"rotation":[
				-0.3750366270542145,
				0.8868622779846191,
				-0.041895024478435516,
				0.2665850818157196
			],
			"scale":[
				10.398173332214355,
				10.398173332214355,
				10.398173332214355
			],
			"translation":[
				-32.06700134277344,
				30.979389190673828,
				-12.416240692138672
			]
		},
		{
			"mesh":2,
			"name":"Plane.001",
			"rotation":[
				0,
				0,
				-0.274410605430603,
				0.9616126418113708
			],
			"scale":[
				10.398173332214355,
				10.398173332214355,
				10.398173332214355
			],
			"translation":[
				24.598180770874023,
				30.979389190673828,
				0
			]
		},
		{
			"mesh":3,
			"name":"Plane",
			"scale":[
				115.62661743164062,
				115.62661743164062,
				115.62661743164062
			]
		},
		{
			"mesh":4,
			"name":"Cube",
			"translation":[
				1.2880077362060547,
				3.0608127117156982,
				-0.2945600748062134
			]
		}
	],
	"materials":[
		{
			"doubleSided":true,
			"emissiveFactor":[
				0.47504193558914043,
				0.5853583885408888,
				1
			],
			"extensions":{
				"KHR_materials_emissive_strength":{
					"emissiveStrength":9.68000117063525
				}
			},
			"name":"Material.001",
			"pbrMetallicRoughness":{
				"baseColorFactor":[
					0,
					0,
					0,
					1
				]
			}
		},
		{
			"doubleSided":true,
			"name":"Material",
			"pbrMetallicRoughness":{}
		},
		{
			"doubleSided":true,
			"name":"black plastic",
			"pbrMetallicRoughness":{}
		},
		{
			"doubleSided":true,
			"name":"white",
			"pbrMetallicRoughness":{}
		},
		{
			"doubleSided":true,
			"name":"blue",
			"pbrMetallicRoughness":{}
		},
		{
			"doubleSided":true,
			"name":"orange",
			"pbrMetallicRoughness":{}
		},
		{
			"doubleSided":true,
			"name":"red",
			"pbrMetallicRoughness":{}
		},
		{
			"doubleSided":true,
			"name":"green",
			"pbrMetallicRoughness":{}
		},
		{
			"doubleSided":true,
			"name":"yellow",
			"pbrMetallicRoughness":{}
		}
	],
	"meshes":[
		{
			"name":"Plane.003",
			"primitives":[
				{
					"attributes":{
						"POSITION":0,
						"NORMAL":1
					},
					"indices":2,
					"material":0
				}
			]
		},
		{
			"name":"Plane.002",
			"primitives":[
				{
					"attributes":{
						"POSITION":3,
						"NORMAL":4
					},
					"indices":2,
					"material":0
				}
			]
		},
		{
			"name":"Plane.001",
			"primitives":[
				{
					"attributes":{
						"POSITION":5,
						"NORMAL":6
					},
					"indices":2,
					"material":0
				}
			]
		},
		{
			"name":"Plane",
			"primitives":[
				{
					"attributes":{
						"POSITION":7,
						"NORMAL":8
					},
					"indices":2,
					"material":1
				}
			]
		},
		{
			"name":"Cube",
			"primitives":[
				{
					"attributes":{
						"POSITION":9,
						"NORMAL":10
					},
					"indices":11,
					"material":2
				},
				{
					"attributes":{
						"POSITION":12,
						"NORMAL":13
					},
					"indices":14,
					"material":3
				},
				{
					"attributes":{
						"POSITION":15,
						"NORMAL":16
					},
					"indices":17,
					"material":4
				},
				{
					"attributes":{
						"POSITION":18,
						"NORMAL":19
					},
					"indices":14,
					"material":5
				},
				{
					"attributes":{
						"POSITION":20,
						"NORMAL":21
					},
					"indices":14,
					"material":6
				},
				{
					"attributes":{
						"POSITION":22,
						"NORMAL":23
					},
					"indices":24,
					"material":7
				},
				{
					"attributes":{
						"POSITION":25,
						"NORMAL":26
					},
					"indices":27,
					"material":8
				}
			]
		}
	],
	"accessors":[
		{
			"bufferView":0,
			"componentType":5126,
			"count":4,
			"max":[
				1,
				0,
				1
			],
			"min":[
				-1,
				0,
				-1
			],
			"type":"VEC3"
		},
		{
			"bufferView":1,
			"componentType":5126,
			"count":4,
			"type":"VEC3"
		},
		{
			"bufferView":2,
			"componentType":5123,
			"count":6,
			"type":"SCALAR"
		},
		{
			"bufferView":3,
			"componentType":5126,
			"count":4,
			"max":[
				1,
				0,
				1
			],
			"min":[
				-1,
				0,
				-1
			],
			"type":"VEC3"
		},
		{
			"bufferView":4,
			"componentType":5126,
			"count":4,
			"type":"VEC3"
		},
		{
			"bufferView":5,
			"componentType":5126,
			"count":4,
			"max":[
				1,
				0,
				1
			],
			"min":[
				-1,
				0,
				-1
			],
			"type":"VEC3"
		},
		{
			"bufferView":6,
			"componentType":5126,
			"count":4,
			"type":"VEC3"
		},
		{
			"bufferView":7,
			"componentType":5126,
			"count":4,
			"max":[
				1,
				0,
				1
			],
			"min":[
				-1,
				0,
				-1
			],
			"type":"VEC3"
		},
		{
			"bufferView":8,
			"componentType":5126,
			"count":4,
			"type":"VEC3"
		},
		{
			"bufferView":9,
			"componentType":5126,
			"count":7992,
			"max":[
				3.0200090408325195,
				3.020014524459839,
				3.0199875831604004
			],
			"min":[
				-3.019993305206299,
				-3.0199854373931885,
				-3.020015239715576
			],
			"type":"VEC3"
		},
		{
			"bufferView":10,
			"componentType":5126,
			"count":7992,
			"type":"VEC3"
		},
		{
			"bufferView":11,
			"componentType":5123,
			"count":47304,
			"type":"SCALAR"
		},
		{
			"bufferView":12,
			"componentType":5126,
			"count":36,
			"max":[
				2.8496479988098145,
				2.849653959274292,
				3.0199875831604004
			],
			"min":[
				-2.849632740020752,
				-2.8496251106262207,
				3.019986867904663
			],
			"type":"VEC3"
		},
		{
			"bufferView":13,
			"componentType":5126,
			"count":36,
			"type":"VEC3"
		},
		{
			"bufferView":14,
			"componentType":5123,
			"count":54,
			"type":"SCALAR"
		},
		{
			"bufferView":15,
			"componentType":5126,
			"count":36,
			"max":[
				2.8496484756469727,
				3.020014524459839,
				2.8496270179748535
			],
			"min":[
				-2.849632740020752,
				3.020014524459839,
				-2.849654197692871
			],
			"type":"VEC3"
		},
		{
			"bufferView":16,
			"componentType":5126,
			"count":36,
			"type":"VEC3"
		},
		{
			"bufferView":17,
			"componentType":5123,
			"count":54,
			"type":"SCALAR"
		},
		{
			"bufferView":18,
			"componentType":5126,
			"count":36,
			"max":[
				-3.0199925899505615,
				2.849653959274292,
				2.8496265411376953
			],
			"min":[
				-3.019993305206299,
				-2.8496251106262207,
				-2.8496546745300293
			],
			"type":"VEC3"
		},
		{
			"bufferView":19,
			"componentType":5126,
			"count":36,
			"type":"VEC3"
		},
		{
			"bufferView":20,
			"componentType":5126,
			"count":36,
			"max":[
				3.0200090408325195,
				2.849653959274292,
				2.8496272563934326
			],
			"min":[
				3.020008087158203,
				-2.8496251106262207,
				-2.849654197692871
			],
			"type":"VEC3"
		},
		{
			"bufferView":21,
			"componentType":5126,
			"count":36,
			"type":"VEC3"
		},
		{
			"bufferView":22,
			"componentType":5126,
			"count":36,
			"max":[
				2.8496479988098145,
				-3.0199854373931885,
				2.8496265411376953
			],
			"min":[
				-2.849632501602173,
				-3.0199854373931885,
				-2.8496546745300293
			],
			"type":"VEC3"
		},
		{
			"bufferView":23,
			"componentType":5126,
			"count":36,
			"type":"VEC3"
		},
		{
			"bufferView":24,
			"componentType":5123,
			"count":54,
			"type":"SCALAR"
		},
		{
			"bufferView":25,
			"componentType":5126,
			"count":36,
			"max":[
				2.8496484756469727,
				2.849653959274292,
				-3.0200142860412598
			],
			"min":[
				-2.8496322631835938,
				-2.8496251106262207,
				-3.020015239715576
			],
			"type":"VEC3"
		},
		{
			"bufferView":26,
			"componentType":5126,
			"count":36,
			"type":"VEC3"
		},
		{
			"bufferView":27,
			"componentType":5123,
			"count":54,
			"type":"SCALAR"
		}
	],
	"bufferViews":[
		{
			"buffer":0,
			"byteLength":48,
			"byteOffset":0,
			"target":34962
		},
		{
			"buffer":0,
			"byteLength":48,
			"byteOffset":48,
			"target":34962
		},
		{
			"buffer":0,
			"byteLength":12,
			"byteOffset":96,
			"target":34963
		},
		{
			"buffer":0,
			"byteLength":48,
			"byteOffset":108,
			"target":34962
		},
		{
			"buffer":0,
			"byteLength":48,
			"byteOffset":156,
			"target":34962
		},
		{
			"buffer":0,
			"byteLength":48,
			"byteOffset":204,
			"target":34962
		},
		{
			"buffer":0,
			"byteLength":48,
			"byteOffset":252,
			"target":34962
		},
		{
			"buffer":0,
			"byteLength":48,
			"byteOffset":300,
			"target":34962
		},
		{
			"buffer":0,
			"byteLength":48,
			"byteOffset":348,
			"target":34962
		},
		{
			"buffer":0,
			"byteLength":95904,
			"byteOffset":396,
			"target":34962
		},
		{
			"buffer":0,
			"byteLength":95904,
			"byteOffset":96300,
			"target":34962
		},
		{
			"buffer":0,
			"byteLength":94608,
			"byteOffset":192204,
			"target":34963
		},
		{
			"buffer":0,
			"byteLength":432,
			"byteOffset":286812,
			"target":34962
		},
		{
			"buffer":0,
			"byteLength":432,
			"byteOffset":287244,
			"target":34962
		},
		{
			"buffer":0,
			"byteLength":108,
			"byteOffset":287676,
			"target":34963
		},
		{
			"buffer":0,
			"byteLength":432,
			"byteOffset":287784,
			"target":34962
		},
		{
			"buffer":0,
			"byteLength":432,
			"byteOffset":288216,
			"target":34962
		},
		{
			"buffer":0,
			"byteLength":108,
			"byteOffset":288648,
			"target":34963
		},
		{
			"buffer":0,
			"byteLength":432,
			"byteOffset":288756,
			"target":34962
		},
		{
			"buffer":0,
			"byteLength":432,
			"byteOffset":289188,
			"target":34962
		},
		{
			"buffer":0,
			"byteLength":432,
			"byteOffset":289620,
			"target":34962
		},
		{
			"buffer":0,
			"byteLength":432,
			"byteOffset":290052,
			"target":34962
		},
		{
			"buffer":0,
			"byteLength":432,
			"byteOffset":290484,
			"target":34962
		},
		{
			"buffer":0,
			"byteLength":432,
			"byteOffset":290916,
			"target":34962
		},
		{
			"buffer":0,
			"byteLength":108,
			"byteOffset":291348,
			"target":34963
		},
		{
			"buffer":0,
			"byteLength":432,
			"byteOffset":291456,
			"target":34962
		},
		{
			"buffer":0,
			"byteLength":432,
			"byteOffset":291888,
			"target":34962
		},
		{
			"buffer":0,
			"byteLength":108,
			"byteOffset":292320,
			"target":34963
		}
	],
	"buffers":[
		{
			"byteLength":292428,
			"uri":"rubiks.bin"
		}
	]
}
